<svg xmlns="http://www.w3.org/2000/svg" xmlns:xlink="http://www.w3.org/1999/xlink" viewBox="0,0,256,256" width="24px" height="24px"><g fill-opacity="0.7098" fill="#5e5178" fill-rule="nonzero" stroke="none" stroke-width="1" stroke-linecap="butt" stroke-linejoin="miter" stroke-miterlimit="10" stroke-dasharray="" stroke-dashoffset="0" font-family="none" font-weight="none" font-size="none" text-anchor="none" style="mix-blend-mode: normal"><g transform="scale(5.33333,5.33333)"><path d="M20.5,4c-0.49034,-0.00628 -0.95279,0.22749 -1.23848,0.62606c-0.28569,0.39856 -0.35854,0.9116 -0.19511,1.37394h-2.92578c-1.83725,0 -3.5577,0.91945 -4.57617,2.44922l-2.36719,3.55078h-1.69727c-0.54095,-0.00765 -1.04412,0.27656 -1.31683,0.74381c-0.27271,0.46725 -0.27271,1.04514 0,1.51238c0.27271,0.46725 0.77588,0.75146 1.31683,0.74381h2.26367c0.14761,0.02215 0.2977,0.02215 0.44531,0h26.12109l-1.57227,14.67969c-0.07134,0.54019 0.15584,1.07659 0.59345,1.40123c0.43761,0.32464 1.01684,0.38647 1.51312,0.16152c0.49628,-0.22495 0.83156,-0.70131 0.87585,-1.24439l1.60742,-14.99805h1.15234c0.54095,0.00765 1.04412,-0.27656 1.31683,-0.74381c0.27271,-0.46725 0.27271,-1.04514 0,-1.51238c-0.27271,-0.46725 -0.77588,-0.75146 -1.31683,-0.74381h-1.69727l-2.36719,-3.55078c-1.01929,-1.52894 -2.73955,-2.44922 -4.57617,-2.44922h-2.92578c0.16343,-0.46234 0.09058,-0.97538 -0.19511,-1.37394c-0.28569,-0.39856 -0.74814,-0.63234 -1.23848,-0.62606zM16.14063,9h15.71875c0.83737,0 1.61537,0.41622 2.08008,1.11328l1.25781,1.88672h-22.39453l1.25781,-1.88672c0.00065,-0.00065 0.0013,-0.0013 0.00195,-0.00195c0.46348,-0.69619 1.23938,-1.11133 2.07813,-1.11133zM10.57227,17.65039c-0.42313,0.00966 -0.8225,0.19761 -1.09962,0.51752c-0.27712,0.3199 -0.40622,0.74198 -0.35546,1.16217l2.00781,18.75586c0.29835,2.78234 2.67084,4.91406 5.46875,4.91406h14.81055c2.79791,0 5.1704,-2.13172 5.46875,-4.91406l0.37305,-3.48047c0.07134,-0.54019 -0.15584,-1.07659 -0.59345,-1.40123c-0.43761,-0.32464 -1.01684,-0.38647 -1.51312,-0.16152c-0.49628,0.22495 -0.83156,0.70131 -0.87586,1.24438l-0.37305,3.47852c-0.13765,1.28366 -1.19624,2.23438 -2.48633,2.23438h-14.81055c-1.29009,0 -2.34673,-0.95071 -2.48437,-2.23437l-2.00977,-18.75391c-0.0727,-0.78442 -0.73976,-1.37897 -1.52734,-1.36133z"></path></g></g></svg>