<?xml version="1.0" standalone="no"?>
<!DOCTYPE svg PUBLIC "-//W3C//DTD SVG 20010904//EN"
 "http://www.w3.org/TR/2001/REC-SVG-20010904/DTD/svg10.dtd">
<svg version="1.0" xmlns="http://www.w3.org/2000/svg"
 width="500.000000pt" height="500.000000pt" viewBox="0 0 500.000000 500.000000"
 preserveAspectRatio="xMidYMid meet">

<g transform="translate(0.000000,500.000000) scale(0.100000,-0.100000)"
fill="#000000" stroke="none">
<path d="M2392 3489 c-156 -20 -311 -77 -445 -162 -71 -45 -185 -154 -241
-227 -60 -81 -130 -221 -162 -326 -26 -83 -28 -101 -28 -269 0 -212 13 -277
94 -442 122 -251 341 -435 617 -520 82 -25 100 -27 268 -27 206 0 277 14 422
83 215 103 372 257 473 465 80 162 94 228 94 441 0 168 -2 186 -28 269 -87
284 -275 502 -541 627 -98 46 -194 72 -320 88 -99 12 -112 12 -203 0z m248
-440 c77 -36 121 -77 161 -151 32 -59 34 -69 34 -158 0 -113 -19 -163 -89
-238 -100 -107 -260 -138 -392 -76 -55 26 -137 106 -164 160 -29 58 -39 181
-20 247 28 101 124 199 229 232 69 22 174 15 241 -16z m69 -829 c83 -29 199
-108 255 -172 45 -51 110 -169 122 -219 5 -24 -1 -32 -59 -73 -78 -55 -207
-118 -297 -142 -50 -14 -102 -18 -230 -19 -188 0 -262 16 -393 81 -87 44 -186
110 -194 130 -8 22 24 102 69 171 76 117 215 219 353 258 79 23 292 14 374
-15z"/>
</g>
</svg>
